<?xml version="1.0" encoding="UTF-8" standalone="no"?>
<!-- Created with Inkscape (http://www.inkscape.org/) -->

<svg
   xmlns:dc="http://purl.org/dc/elements/1.1/"
   xmlns:cc="http://creativecommons.org/ns#"
   xmlns:rdf="http://www.w3.org/1999/02/22-rdf-syntax-ns#"
   xmlns:svg="http://www.w3.org/2000/svg"
   xmlns="http://www.w3.org/2000/svg"
   xmlns:sodipodi="http://sodipodi.sourceforge.net/DTD/sodipodi-0.dtd"
   xmlns:inkscape="http://www.inkscape.org/namespaces/inkscape"
   width="1920"
   height="1920"
   viewBox="0 0 507.99999 508.00001"
   version="1.1"
   id="svg8"
   inkscape:version="0.92.5 (2060ec1f9f, 2020-04-08)"
   sodipodi:docname="monkeyjunglejuice.svg"
   inkscape:export-filename="/home/dade/Documents/monkeyjunglejuice/files/monkeyjunglejuice.png"
   inkscape:export-xdpi="96"
   inkscape:export-ydpi="96">
  <defs
     id="defs2" />
  <sodipodi:namedview
     id="base"
     pagecolor="#ffffff"
     bordercolor="#666666"
     borderopacity="1.0"
     inkscape:pageopacity="0.0"
     inkscape:pageshadow="2"
     inkscape:zoom="0.11313708"
     inkscape:cx="-1523.3749"
     inkscape:cy="804.97896"
     inkscape:document-units="mm"
     inkscape:current-layer="layer1"
     showgrid="false"
     units="px"
     inkscape:snap-bbox="false"
     inkscape:snap-center="true"
     inkscape:snap-object-midpoints="true"
     inkscape:snap-page="true"
     inkscape:showpageshadow="false"
     inkscape:pagecheckerboard="true"
     borderlayer="true" />
  <metadata
     id="metadata5">
    <rdf:RDF>
      <cc:Work
         rdf:about="">
        <dc:format>image/svg+xml</dc:format>
        <dc:type
           rdf:resource="http://purl.org/dc/dcmitype/StillImage" />
        <dc:title />
      </cc:Work>
    </rdf:RDF>
  </metadata>
  <g
     inkscape:label="MonkeyJungleJuice"
     inkscape:groupmode="layer"
     id="layer1"
     transform="translate(0,211.00002)">
    <rect
       style="fill:#a02c2c;fill-opacity:1;stroke:none;stroke-width:1.5;stroke-miterlimit:4;stroke-dasharray:none;stroke-opacity:1"
       id="rect10"
       width="508"
       height="508"
       x="-1.5875013e-07"
       y="-211.00002"
       inkscape:label="bg" />
    <path
       inkscape:label="J"
       inkscape:connector-curvature="0"
       id="path13"
       style="font-style:normal;font-variant:normal;font-weight:800;font-stretch:normal;font-size:267.87121582px;line-height:1.25;font-family:'Alegreya SC';-inkscape-font-specification:'Alegreya SC, Ultra-Bold';font-variant-ligatures:normal;font-variant-caps:normal;font-variant-numeric:normal;font-feature-settings:normal;text-align:start;letter-spacing:0px;writing-mode:lr-tb;text-anchor:start;fill:#fff8dc;fill-opacity:1;stroke:none;stroke-width:1.5;stroke-miterlimit:4;stroke-dasharray:none;stroke-opacity:1"
       d="m 281.92762,158.48783 c 40.18069,-12.05421 57.86019,-32.68029 57.86019,-67.503547 0,-32.412417 1.8751,-89.7368576 3.21445,-114.113138 0.80362,-10.446978 2.41084,-12.054205 13.39356,-14.465046 l 1.8751,-20.893955 c 0,0 -23.30479,1.875099 -44.73449,1.875099 l -35.09113,0.267871 -2.14297,17.6795 1.8751,2.946584 c 0,0 6.69678,-0.535743 10.44697,-0.535743 7.5004,0 9.10763,2.678712 9.10763,13.661432 V 82.144533 c 0,34.019647 -4.82169,45.805977 -24.10841,61.342507 l -0.53575,3.21446 z" />
    <path
       inkscape:label="J"
       inkscape:connector-curvature="0"
       id="path15"
       style="font-style:normal;font-variant:normal;font-weight:800;font-stretch:normal;font-size:267.87121582px;line-height:1.25;font-family:'Alegreya SC';-inkscape-font-specification:'Alegreya SC, Ultra-Bold';font-variant-ligatures:normal;font-variant-caps:normal;font-variant-numeric:normal;font-feature-settings:normal;text-align:start;letter-spacing:0px;writing-mode:lr-tb;text-anchor:start;fill:#fff8dc;fill-opacity:1;stroke:none;stroke-width:1.5;stroke-miterlimit:4;stroke-dasharray:none;stroke-opacity:1"
       d="m 371.66424,158.48783 c 40.18068,-12.05421 57.86019,-32.68029 57.86019,-67.503547 0,-32.412417 1.87509,-89.7368576 3.21445,-114.113138 0.80361,-10.446978 2.41084,-12.054205 13.39356,-14.465046 l 1.8751,-20.893955 c 0,0 -23.3048,1.875099 -44.73449,1.875099 l -35.09113,0.267871 -2.14297,17.6795 1.8751,2.946584 c 0,0 6.69678,-0.535743 10.44697,-0.535743 7.5004,0 9.10762,2.678712 9.10762,13.661432 V 82.144533 c 0,34.019647 -4.82168,45.805977 -24.10841,61.342507 l -0.53574,3.21446 z" />
    <path
       inkscape:label="M"
       inkscape:connector-curvature="0"
       id="path11"
       style="font-style:normal;font-variant:normal;font-weight:800;font-stretch:normal;font-size:267.87121582px;line-height:1.25;font-family:'Alegreya SC';-inkscape-font-specification:'Alegreya SC, Ultra-Bold';font-variant-ligatures:normal;font-variant-caps:normal;font-variant-numeric:normal;font-feature-settings:normal;text-align:start;letter-spacing:-7.29456282px;writing-mode:lr-tb;text-anchor:start;fill:#fff8dc;fill-opacity:1;stroke:none;stroke-width:1.5;stroke-miterlimit:4;stroke-dasharray:none;stroke-opacity:1"
       d="m 150.26506,119.91437 24.37628,-2.41084 C 189.91,66.608002 205.7144,20.802024 211.3397,4.9976224 h 2.67871 c 0.80362,28.1264776 3.7502,72.5930996 3.7502,79.8256226 0,8.304007 -4.01807,12.054204 -14.19718,13.125689 l -2.67871,20.358216 c 1.60723,-0.26787 31.87668,-2.14297 43.66301,-2.14297 9.37549,0 23.03693,0.53574 28.12648,0.80361 l 2.41084,-19.286727 -1.33936,-1.875098 c -1.33935,0.267871 -5.08955,0.535742 -7.76826,0.535742 -8.30401,0 -10.98272,-5.089553 -12.85782,-24.108409 -2.67871,-28.930092 -6.16104,-82.504335 -6.16104,-95.897896 0,-10.179106 4.01807,-13.125689 19.01886,-14.197174 l 1.8751,-19.018856 -1.60723,-1.071485 c -3.7502,0.267871 -17.41163,1.339356 -26.25138,1.607227 -3.48233,0.267871 -7.23252,0.267871 -10.98272,0.267871 -9.91123,0 -19.82247,-0.535742 -28.12648,-0.535742 -11.78633,40.180682 -25.17989,82.772205 -30.53732,100.183834 h -2.67871 c -4.82168,-18.215242 -17.41163,-60.271023 -28.12648,-100.987448 -8.57187,0.267871 -24.64415,1.071485 -33.75177,1.071485 -6.696781,0 -22.233312,-0.803614 -35.894744,-1.339356 l -2.678712,18.483114 1.875098,1.875098 c 16.072273,1.607228 18.750986,3.482326 18.750986,13.12569 0,5.357424 -9.107622,96.165766 -10.179107,103.66616 -2.678712,13.393561 -6.161038,17.411629 -15.804401,18.750985 l -1.875099,20.090345 c 0,-0.26787 20.090341,-2.14297 28.394349,-2.14297 7.232523,0 25.71564,0.80361 34.28752,1.07148 l 2.94658,-19.286726 -1.8751,-1.875098 c -1.33935,0.267871 -6.42891,0.535742 -8.03613,0.535742 -6.16104,0 -8.83975,-2.946583 -8.83975,-8.83975 0,-6.161038 3.75019,-68.039289 4.01806,-82.7722056 h 2.94659 C 119.45987,21.069895 134.46066,66.07226 150.26506,119.91437 Z" />
  </g>
</svg>
